<?xml version="1.0" encoding="utf-8"?>
<!-- Generator: Adobe Illustrator 21.0.0, SVG Export Plug-In . SVG Version: 6.00 Build 0)  -->
<svg version="1.1" id="Layer_1" xmlns="http://www.w3.org/2000/svg" xmlns:xlink="http://www.w3.org/1999/xlink" x="0px" y="0px"
	 viewBox="0 0 150 50" style="enable-background:new 0 0 150 50;" xml:space="preserve">
<style type="text/css">
	.st0{fill:none;stroke:#FFFFFF;stroke-width:3;stroke-linecap:round;stroke-linejoin:round;stroke-miterlimit:10;}
	.st1{fill:#C1A57B;}
	.st2{fill:#ECECEC;}
</style>
<path class="st0" d="M27.5,68.5"/>
<g>
	<rect x="24.5" y="43.6" class="st1" width="6.1" height="3"/>
	<path class="st1" d="M28.2,7.5l21.5,9.2V5.3c0-1.6-1.3-3-3-3H8.4c-1.6,0-3,1.3-3,3v11.4l21.5-9.2C27.3,7.3,27.8,7.3,28.2,7.5z"/>
	<rect x="13.4" y="42.5" class="st1" width="5" height="4.2"/>
	<rect x="24.5" y="39.2" class="st1" width="6.1" height="2.8"/>
	<path class="st1" d="M28,19.5C28,19.5,28,19.5,28,19.5c2.2,0.2,4,2.1,4,4.4h-8.9c0-2.3,1.8-4.2,4-4.4c0,0,0,0,0,0V11L5.4,20.3v23.4
		c0,1.6,1.3,3,3,3h3.4v-5v-10c0-0.5,0.4-0.8,0.8-0.8c0.5,0,0.8,0.4,0.8,0.8v9.1h5.8c0.5,0,0.8,0.4,0.8,0.8v5h2.8v-3.9v-3.6h-3.6
		c-0.5,0-0.8-0.4-0.8-0.8s0.4-0.8,0.8-0.8h4.4h7.8h4.4c0.5,0,0.8,0.4,0.8,0.8s-0.4,0.8-0.8,0.8h-3.6v3.6v3.9H35v-5
		c0-0.5,0.4-0.8,0.8-0.8h5.8v-9.1c0-0.5,0.4-0.8,0.8-0.8c0.5,0,0.8,0.4,0.8,0.8v10v5h3.4c1.6,0,3-1.3,3-3V20.3L28,11V19.5z"/>
	<rect x="36.7" y="42.5" class="st1" width="5" height="4.2"/>
</g>
<path class="st2" d="M64.4,18.5c0.3,0,0.5,0.2,0.5,0.5v8.3h0.7c0.7,0,1.4,0,2-0.1c0.7,0,1.4-0.1,2.1-0.3l0.1,1
	c0,0.3-0.2,0.5-0.4,0.6c-0.6,0.1-1.2,0.1-1.9,0.2c-0.8,0-1.8,0.1-2.8,0.1h-1.2c-0.3,0-0.5-0.2-0.5-0.5v-9.3c0-0.3,0.2-0.5,0.5-0.5
	H64.4z M76,33.4h-0.7c-0.3,0-0.5-0.2-0.5-0.5v-8.5c0-0.3-0.2-0.5-0.5-0.5h-1c-0.3,0-0.5,0.2-0.5,0.5V32c0,0.3-0.2,0.5-0.5,0.5h-0.7
	c-0.3,0-0.5-0.2-0.5-0.5V17.9c0-0.3,0.2-0.5,0.5-0.5h0.7c0.3,0,0.5,0.2,0.5,0.5v4c0,0.3,0.2,0.5,0.5,0.5h1c0.3,0,0.5-0.2,0.5-0.5
	v-4.3c0-0.3,0.2-0.5,0.5-0.5H76c0.3,0,0.5,0.2,0.5,0.5v15.3C76.5,33.1,76.3,33.4,76,33.4z"/>
<path class="st1" d="M86.8,21.8c-0.1,0.2-0.2,0.4-0.5,0.7c-0.3,0.3-0.6,0.6-0.9,0.9c-0.5,0.4-1,0.7-1.6,1.2
	c-0.4,0.3-0.9,0.6-1.3,0.9c-0.3,0.2-0.7,0.1-0.9-0.2l-0.8-1.1c0.7-0.5,1.4-0.9,2-1.4c0.6-0.5,1.2-0.9,1.6-1.2
	c0.3-0.3,0.5-0.5,0.7-0.8c0.2-0.2,0.3-0.5,0.4-0.8c0.1-0.3,0.2-0.5,0.2-0.9c0-0.3,0-0.7,0-1.1v-0.2h-4.3v-1.8h10.5v1.8h-4.1v0.1
	c0,0.4,0,0.7,0,0.9c0,0.3,0,0.5,0.1,0.7c0.1,0.2,0.2,0.4,0.3,0.6c0.1,0.2,0.3,0.4,0.6,0.7c0.5,0.4,1.1,0.9,1.7,1.3
	c0.6,0.4,1.3,0.8,1.9,1.2l-0.8,1.1c-0.2,0.3-0.6,0.3-0.9,0.2c-0.4-0.3-0.8-0.5-1.2-0.8c-0.6-0.4-1.1-0.8-1.5-1.1
	c-0.3-0.2-0.6-0.5-0.8-0.7C87.1,22.2,86.9,22,86.8,21.8L86.8,21.8z M96.9,27v7.6c0,0.4-0.3,0.6-0.6,0.6H85c-0.4,0-0.6-0.3-0.6-0.6
	V27c0-0.4,0.3-0.6,0.6-0.6h0.9c0.4,0,0.6,0.3,0.6,0.6v1.3c0,0.4,0.3,0.6,0.6,0.6h7c0.4,0,0.6-0.3,0.6-0.6V27c0-0.4,0.3-0.6,0.6-0.6
	h0.9C96.6,26.4,96.9,26.7,96.9,27z M94.8,32.8v-1.4c0-0.4-0.3-0.6-0.6-0.6h-7c-0.4,0-0.6,0.3-0.6,0.6v1.4c0,0.4,0.3,0.6,0.6,0.6h7
	C94.5,33.4,94.8,33.2,94.8,32.8z M94.8,24.8v-9.1c0-0.4,0.3-0.6,0.6-0.6h0.9c0.4,0,0.6,0.3,0.6,0.6v9.1c0,0.4-0.3,0.6-0.6,0.6h-0.9
	C95.1,25.4,94.8,25.2,94.8,24.8z"/>
<g>
	<path class="st2" d="M106.8,32.8v-5.6c0-0.3-0.2-0.5-0.5-0.5h-6.1v-1.5h4.5c0.1-0.4,0.2-0.9,0.3-1.4c0.1-0.5,0.2-0.9,0.2-1.4
		c0.1-0.4,0.1-0.8,0.1-1.2c0-0.4,0-0.7,0-1v-0.7h-3.7v-1.5h5.4v1.2c0,1-0.1,2-0.2,3c-0.1,0.8-0.2,1.5-0.4,2.2
		c-0.1,0.3,0.2,0.6,0.5,0.6h3.4c0.2,0,0.5-0.2,0.5-0.4c0.2-0.9,0.3-1.6,0.4-2.3c0.1-0.8,0.1-1.5,0.1-2.2v-0.7h-3.6v-1.5h5.3v1.2
		c0,0.9,0,1.8-0.1,2.8c0,0.8-0.1,1.6-0.3,2.4c-0.1,0.3,0.2,0.6,0.5,0.6h2v1.5h-6.1c-0.3,0-0.5,0.2-0.5,0.5v5.6
		c0,0.3-0.2,0.5-0.5,0.5h-0.7C107,33.4,106.8,33.1,106.8,32.8z"/>
	<path class="st2" d="M117.5,28.5V19c0-0.3,0.2-0.5,0.5-0.5h6.6c0.3,0,0.5,0.2,0.5,0.5v9.5c0,0.3-0.2,0.5-0.5,0.5H118
		C117.7,29,117.5,28.8,117.5,28.5z M119.8,27.6h3.1c0.3,0,0.5-0.2,0.5-0.5v-6.5c0-0.3-0.2-0.5-0.5-0.5h-3.1c-0.3,0-0.5,0.2-0.5,0.5
		V27C119.2,27.3,119.5,27.6,119.8,27.6z M128.1,32.8V17.5c0-0.3,0.2-0.5,0.5-0.5h0.7c0.3,0,0.5,0.2,0.5,0.5v15.3
		c0,0.3-0.2,0.5-0.5,0.5h-0.7C128.4,33.4,128.1,33.1,128.1,32.8z"/>
	<path class="st2" d="M133.5,28.8c-0.2-0.2-0.1-0.6,0.2-0.7c0.7-0.4,1.4-0.8,1.9-1.2c0.7-0.4,1.2-0.8,1.6-1.2c0.4-0.4,0.8-0.7,1-1
		c0.2-0.3,0.4-0.6,0.6-0.9c0.1-0.3,0.2-0.6,0.2-1c0-0.3,0-0.7,0-1.2v-1.1c0-0.3-0.2-0.5-0.5-0.5h-5.1v-1.5h6.8
		c0.3,0,0.5,0.2,0.5,0.5v2.6c0,0.5,0,1,0,1.4c0,0.4-0.1,0.8-0.3,1.2c-0.1,0.4-0.4,0.8-0.6,1.1c-0.3,0.4-0.7,0.8-1.2,1.2
		c-0.5,0.4-1.1,0.9-1.9,1.4c-0.6,0.4-1.4,0.9-2.3,1.5c-0.2,0.1-0.6,0.1-0.7-0.2L133.5,28.8z M144.3,32.8V17.5c0-0.3,0.2-0.5,0.5-0.5
		h0.7c0.3,0,0.5,0.2,0.5,0.5v15.3c0,0.3-0.2,0.5-0.5,0.5h-0.7C144.5,33.4,144.3,33.1,144.3,32.8z"/>
</g>
</svg>
